<?xml version="1.0" encoding="UTF-8" standalone="no"?>
<svg
   xmlns:dc="http://purl.org/dc/elements/1.1/"
   xmlns:cc="http://creativecommons.org/ns#"
   xmlns:rdf="http://www.w3.org/1999/02/22-rdf-syntax-ns#"
   xmlns:svg="http://www.w3.org/2000/svg"
   xmlns="http://www.w3.org/2000/svg"
   xmlns:sodipodi="http://sodipodi.sourceforge.net/DTD/sodipodi-0.dtd"
   xmlns:inkscape="http://www.inkscape.org/namespaces/inkscape"
   viewBox="0.0 0.0 348.0 348.0"
   fill="none"
   id="svg2"
   version="1.1"
   inkscape:version="0.91 r13725"
   sodipodi:docname="Modulo.svg">
  <metadata
     id="metadata12">
    <rdf:RDF>
      <cc:Work
         rdf:about="">
        <dc:format>image/svg+xml</dc:format>
        <dc:type
           rdf:resource="http://purl.org/dc/dcmitype/StillImage" />
      </cc:Work>
    </rdf:RDF>
  </metadata>
  <defs
     id="defs10" />
  <sodipodi:namedview
     pagecolor="#ffffff"
     bordercolor="#666666"
     borderopacity="1"
     objecttolerance="10"
     gridtolerance="10"
     guidetolerance="10"
     inkscape:pageopacity="0"
     inkscape:pageshadow="2"
     inkscape:window-width="1440"
     inkscape:window-height="785"
     id="namedview8"
     showgrid="false"
     inkscape:zoom="1.3563218"
     inkscape:cx="174"
     inkscape:cy="174"
     inkscape:window-x="43"
     inkscape:window-y="0"
     inkscape:window-maximized="0"
     inkscape:current-layer="svg2" />
  <path
     d="M5.079 5.776h336.913v337.67H5.08z"
     stroke-width="2"
     stroke="#000"
     id="path4" />
  <path
     d="M282.734 40.554c0-8.376 6.966-15.165 15.56-15.165 4.126 0 8.084 1.597 11.001 4.441 2.918 2.844 4.558 6.702 4.558 10.724 0 8.376-6.966 15.165-15.56 15.165-8.593 0-15.559-6.79-15.559-15.165z"
     stroke-width="2"
     stroke="#000"
     id="path6" />
  <rect
     style="fill:#ffffff;fill-rule:evenodd;stroke:#000000;stroke-width:3;stroke-linecap:butt;stroke-linejoin:miter;stroke-opacity:1;fill-opacity:1;stroke-miterlimit:4;stroke-dasharray:none"
     id="rect4140"
     width="80.36441"
     height="80.36441"
     x="9.5847454"
     y="11.059321" />
  <rect
     y="11.455547"
     x="109.51487"
     height="79.571953"
     width="129.70755"
     id="rect4142"
     style="fill:#ffffff;fill-opacity:1;fill-rule:evenodd;stroke:#000000;stroke-width:3.79245234;stroke-linecap:butt;stroke-linejoin:miter;stroke-miterlimit:4;stroke-dasharray:none;stroke-opacity:1" />
  <g
     transform="scale(1.0441797,0.95768955)"
     style="font-style:normal;font-weight:normal;font-size:86.51473999px;line-height:125%;font-family:sans-serif;letter-spacing:0px;word-spacing:0px;fill:#000000;fill-opacity:1;stroke:none;stroke-width:1px;stroke-linecap:butt;stroke-linejoin:miter;stroke-opacity:1"
     id="text4144">
    <path
       d="m 48.481602,66.594392 -2.508927,18.860213 7.699812,0 2.422413,-18.860213 9.170562,0 0,-7.526783 -7.959356,0 1.730295,-13.15024 8.651474,0 0,-7.526782 -7.613297,0 2.422412,-18.42764 -7.526782,0 -2.508927,18.42764 -8.651474,0 2.422412,-18.42764 -7.526782,0 -2.508928,18.42764 -9.084047,0 0,7.526782 8.045871,0 -1.730295,13.15024 -8.824504,0 0,7.526783 7.699812,0 -2.595442,18.860213 7.699812,0 2.508927,-18.860213 8.564959,0 z m 2.854987,-20.677023 -1.64378,13.15024 -8.651474,0 1.730295,-13.15024 8.564959,0 z"
       style="font-style:normal;font-variant:normal;font-weight:bold;font-stretch:normal;font-family:'Adobe Gothic Std';-inkscape-font-specification:'Adobe Gothic Std Bold'"
       id="path4245" />
  </g>
  <g
     transform="scale(1.0441797,0.95768956)"
     style="font-style:normal;font-weight:normal;font-size:86.51473999px;line-height:125%;font-family:sans-serif;letter-spacing:0px;word-spacing:0px;fill:#000000;fill-opacity:1;stroke:none;stroke-width:1px;stroke-linecap:butt;stroke-linejoin:miter;stroke-opacity:1"
     id="text4148">
    <path
       d="m 145.92245,66.594392 -2.50893,18.860213 7.69982,0 2.42241,-18.860213 9.17056,0 0,-7.526783 -7.95935,0 1.73029,-13.15024 8.65147,0 0,-7.526782 -7.61329,0 2.42241,-18.42764 -7.52678,0 -2.50893,18.42764 -8.65147,0 2.42241,-18.42764 -7.52678,0 -2.50893,18.42764 -9.08405,0 0,7.526782 8.04587,0 -1.73029,13.15024 -8.82451,0 0,7.526783 7.69982,0 -2.59545,18.860213 7.69982,0 2.50892,-18.860213 8.56496,0 z m 2.85499,-20.677023 -1.64378,13.15024 -8.65148,0 1.7303,-13.15024 8.56496,0 z"
       style="font-style:normal;font-variant:normal;font-weight:bold;font-stretch:normal;font-family:'Adobe Gothic Std';-inkscape-font-specification:'Adobe Gothic Std Bold'"
       id="path4248" />
    <path
       d="m 194.92494,66.594392 -2.50892,18.860213 7.69981,0 2.42241,-18.860213 9.17056,0 0,-7.526783 -7.95935,0 1.73029,-13.15024 8.65148,0 0,-7.526782 -7.6133,0 2.42241,-18.42764 -7.52678,0 -2.50893,18.42764 -8.65147,0 2.42241,-18.42764 -7.52678,0 -2.50893,18.42764 -9.08405,0 0,7.526782 8.04587,0 -1.73029,13.15024 -8.82451,0 0,7.526783 7.69982,0 -2.59545,18.860213 7.69982,0 2.50892,-18.860213 8.56496,0 z m 2.85499,-20.677023 -1.64378,13.15024 -8.65147,0 1.73029,-13.15024 8.56496,0 z"
       style="font-style:normal;font-variant:normal;font-weight:bold;font-stretch:normal;font-family:'Adobe Gothic Std';-inkscape-font-specification:'Adobe Gothic Std Bold'"
       id="path4250" />
  </g>
  <rect
     y="258.05084"
     x="9.5847454"
     height="80.36441"
     width="80.36441"
     id="rect4152"
     style="fill:#ffffff;fill-opacity:1;fill-rule:evenodd;stroke:#000000;stroke-width:3;stroke-linecap:butt;stroke-linejoin:miter;stroke-miterlimit:4;stroke-dasharray:none;stroke-opacity:1" />
  <g
     transform="scale(1.0441797,0.95768956)"
     style="font-style:normal;font-weight:normal;font-size:86.51473999px;line-height:125%;font-family:sans-serif;letter-spacing:0px;word-spacing:0px;fill:#000000;fill-opacity:1;stroke:none;stroke-width:1px;stroke-linecap:butt;stroke-linejoin:miter;stroke-opacity:1"
     id="text4154">
    <path
       d="m 57.197688,308.81881 3.14599,3.14599 -3.14599,3.14599 -20.448939,0 -3.14599,-3.14599 3.14599,-3.14599 20.448939,0 z m 4.718986,3.93249 1.572995,1.573 0,22.02193 q -0.786498,3.14599 -3.932488,3.93249 l -2.359493,-6.29198 0,-16.51645 4.718986,-4.71899 z m -3.932489,27.52742 -23.594929,0 q -3.14599,-0.7865 -3.932488,-3.93249 l 6.291981,-2.35949 18.875944,0 2.359492,6.29198 z m -21.235436,-48.76286 0,14.94346 -4.718986,4.71898 -1.572995,-1.57299 0,-20.44894 6.291981,2.35949 z m 0.07865,-1.57299 -6.291981,-2.35949 q 0.786498,-3.146 3.932488,-3.93249 l 25.089275,0 q 3.14599,0.78649 3.932488,3.93249 l -6.291981,2.35949 -20.370289,0 z"
       style="font-style:normal;font-variant:normal;font-weight:normal;font-stretch:normal;font-family:Digital-7;-inkscape-font-specification:Digital-7"
       id="path4253" />
  </g>
  <rect
     style="fill:#ffffff;fill-opacity:1;fill-rule:evenodd;stroke:#000000;stroke-width:3;stroke-linecap:butt;stroke-linejoin:miter;stroke-miterlimit:4;stroke-dasharray:none;stroke-opacity:1"
     id="rect4158"
     width="80.36441"
     height="80.36441"
     x="255.83899"
     y="258.05084" />
  <g
     transform="scale(1.0441797,0.95768956)"
     style="font-style:normal;font-weight:normal;font-size:86.51473999px;line-height:125%;font-family:sans-serif;letter-spacing:0px;word-spacing:0px;fill:#000000;fill-opacity:1;stroke:none;stroke-width:1px;stroke-linecap:butt;stroke-linejoin:miter;stroke-opacity:1"
     id="text4160">
    <path
       d="m 299.70923,340.27872 -25.95442,0 q -3.14599,-0.7865 -3.93249,-3.93249 l 6.29198,-2.35949 21.23544,0 2.35949,6.29198 z m -29.88691,-5.50549 0,-20.44893 1.573,-1.573 4.71898,4.71899 0,14.94345 -6.29198,2.35949 z m 27.52742,-44.83036 -21.15679,0 -6.29198,-2.35949 q 0.7865,-3.146 3.93249,-3.93249 l 25.87577,0 -2.35949,6.29198 z m -21.23544,1.57299 0,14.94346 -4.71898,4.71898 -1.573,-1.57299 0,-20.44894 6.29198,2.35949 z"
       style="font-style:normal;font-variant:normal;font-weight:normal;font-stretch:normal;font-family:Digital-7;-inkscape-font-specification:Digital-7"
       id="path4256" />
  </g>
  <rect
     style="fill:#ffffff;fill-opacity:1;fill-rule:evenodd;stroke:#000000;stroke-width:3.79245234;stroke-linecap:butt;stroke-linejoin:miter;stroke-miterlimit:4;stroke-dasharray:none;stroke-opacity:1"
     id="rect4164"
     width="129.70755"
     height="79.571953"
     x="109.51487"
     y="257.70978" />
  <rect
     style="fill:#ffffff;fill-opacity:1;fill-rule:evenodd;stroke:#000000;stroke-width:1.69990849;stroke-linecap:butt;stroke-linejoin:miter;stroke-miterlimit:4;stroke-dasharray:none;stroke-opacity:1"
     id="rect4166"
     width="45.53738"
     height="45.53738"
     x="15.570292"
     y="123.52793" />
  <g
     transform="scale(1.0441797,0.95768956)"
     style="font-style:normal;font-weight:normal;font-size:39.98934174px;line-height:125%;font-family:sans-serif;letter-spacing:0px;word-spacing:0px;fill:#000000;fill-opacity:1;stroke:none;stroke-width:1px;stroke-linecap:butt;stroke-linejoin:miter;stroke-opacity:1"
     id="text4168">
    <path
       d="m 37.777561,152.75064 0.727079,0.72708 0,10.1791 q -0.36354,1.45416 -1.817698,1.8177 l -1.090618,-2.90832 0,-7.63433 2.181237,-2.18123 z m -2.181237,-2.90832 0,-7.63433 1.090618,-2.90831 q 1.454158,0.36354 1.817698,1.81769 l 0,10.17911 -0.727079,0.72708 -2.181237,-2.18124 z"
       style="font-style:normal;font-variant:normal;font-weight:normal;font-stretch:normal;font-family:Digital-7;-inkscape-font-specification:Digital-7"
       id="path4277" />
  </g>
  <rect
     y="186.08725"
     x="15.570292"
     height="45.53738"
     width="45.53738"
     id="rect4190"
     style="fill:#ffffff;fill-opacity:1;fill-rule:evenodd;stroke:#000000;stroke-width:1.69990849;stroke-linecap:butt;stroke-linejoin:miter;stroke-miterlimit:4;stroke-dasharray:none;stroke-opacity:1" />
  <g
     transform="scale(1.0441797,0.95768956)"
     style="font-style:normal;font-weight:normal;font-size:39.98934174px;line-height:125%;font-family:sans-serif;letter-spacing:0px;word-spacing:0px;fill:#000000;fill-opacity:1;stroke:none;stroke-width:1px;stroke-linecap:butt;stroke-linejoin:miter;stroke-opacity:1"
     id="text4192">
    <path
       d="m 41.44797,217.02599 1.454158,1.45415 -1.454158,1.45416 -9.452026,0 -1.454158,-1.45416 1.454158,-1.45415 9.452026,0 z m 2.181237,1.81769 0.727079,0.72708 0,10.17911 q -0.363539,1.45416 -1.817697,1.8177 l -1.090619,-2.90832 0,-7.63433 2.181237,-2.18124 z m -1.817697,12.72389 -10.906184,0 q -1.454158,-0.36354 -1.817698,-1.8177 l 2.908316,-1.09062 8.724947,0 1.090619,2.90832 z m -12.723882,-2.54478 0,-9.45203 0.727079,-0.72708 2.181237,2.18124 0,6.90725 -2.908316,1.09062 z m 12.723882,-20.72175 -9.779212,0 -2.908316,-1.09062 q 0.36354,-1.45416 1.817698,-1.8177 l 11.960448,0 -1.090618,2.90832 z m -9.815566,0.72708 0,6.90725 -2.181237,2.18124 -0.727079,-0.72708 0,-9.45203 2.908316,1.09062 z"
       style="font-style:normal;font-variant:normal;font-weight:normal;font-stretch:normal;font-family:Digital-7;-inkscape-font-specification:Digital-7"
       id="path4274" />
  </g>
  <rect
     y="123.52793"
     x="83.400803"
     height="45.53738"
     width="45.53738"
     id="rect4196"
     style="fill:#ffffff;fill-opacity:1;fill-rule:evenodd;stroke:#000000;stroke-width:1.69990849;stroke-linecap:butt;stroke-linejoin:miter;stroke-miterlimit:4;stroke-dasharray:none;stroke-opacity:1" />
  <g
     transform="scale(1.0441797,0.95768956)"
     style="font-style:normal;font-weight:normal;font-size:39.98934174px;line-height:125%;font-family:sans-serif;letter-spacing:0px;word-spacing:0px;fill:#000000;fill-opacity:1;stroke:none;stroke-width:1px;stroke-linecap:butt;stroke-linejoin:miter;stroke-opacity:1"
     id="text4198">
    <path
       d="m 106.30304,150.93294 1.45416,1.45416 -1.45416,1.45415 -9.452026,0 -1.454158,-1.45415 1.454158,-1.45416 9.452026,0 z m 1.45416,14.54158 -11.996804,0 q -1.454158,-0.36354 -1.817697,-1.8177 l 2.908315,-1.09062 9.815566,0 1.09062,2.90832 z m -13.814501,-2.54478 0,-9.45202 0.727078,-0.72708 2.181237,2.18123 0,6.90725 -2.908315,1.09062 z m 11.633261,-20.72175 -8.688592,0 -2.908316,-1.09062 q 0.36354,-1.45415 1.817698,-1.81769 l 10.86983,0 -1.09062,2.90831 z m 0.72708,7.63433 0,-7.63433 1.09062,-2.90831 q 1.45416,0.36354 1.8177,1.81769 l 0,10.17911 -0.72708,0.72708 -2.18124,-2.18124 z"
       style="font-style:normal;font-variant:normal;font-weight:normal;font-stretch:normal;font-family:Digital-7;-inkscape-font-specification:Digital-7"
       id="path4280" />
  </g>
  <rect
     style="fill:#ffffff;fill-opacity:1;fill-rule:evenodd;stroke:#000000;stroke-width:1.69990849;stroke-linecap:butt;stroke-linejoin:miter;stroke-miterlimit:4;stroke-dasharray:none;stroke-opacity:1"
     id="rect4202"
     width="45.53738"
     height="45.53738"
     x="83.400803"
     y="186.08725" />
  <g
     transform="scale(1.0441797,0.95768956)"
     style="font-style:normal;font-weight:normal;font-size:39.98934174px;line-height:125%;font-family:sans-serif;letter-spacing:0px;word-spacing:0px;fill:#000000;fill-opacity:1;stroke:none;stroke-width:1px;stroke-linecap:butt;stroke-linejoin:miter;stroke-opacity:1"
     id="text4204">
    <path
       d="m 108.58978,218.84368 0.72708,0.72708 0,10.17911 q -0.36354,1.45416 -1.8177,1.8177 l -1.09062,-2.90832 0,-7.63433 2.18124,-2.18124 z m -2.90832,-10.54264 -8.688592,0 -2.908316,-1.09062 q 0.363539,-1.45416 1.817697,-1.8177 l 10.869831,0 -1.09062,2.90832 z m -8.724946,0.72708 0,6.90725 -2.181237,2.18124 -0.727079,-0.72708 0,-9.45203 2.908316,1.09062 z m 9.452026,6.90725 0,-7.63433 1.09062,-2.90832 q 1.45416,0.36354 1.8177,1.8177 l 0,10.17911 -0.72708,0.72708 -2.18124,-2.18124 z"
       style="font-style:normal;font-variant:normal;font-weight:normal;font-stretch:normal;font-family:Digital-7;-inkscape-font-specification:Digital-7"
       id="path4271" />
  </g>
  <rect
     style="fill:#ffffff;fill-opacity:1;fill-rule:evenodd;stroke:#000000;stroke-width:1.69990849;stroke-linecap:butt;stroke-linejoin:miter;stroke-miterlimit:4;stroke-dasharray:none;stroke-opacity:1"
     id="rect4208"
     width="45.53738"
     height="45.53738"
     x="154.18045"
     y="123.52793" />
  <g
     transform="scale(1.0441797,0.95768956)"
     style="font-style:normal;font-weight:normal;font-size:39.98934174px;line-height:125%;font-family:sans-serif;letter-spacing:0px;word-spacing:0px;fill:#000000;fill-opacity:1;stroke:none;stroke-width:1px;stroke-linecap:butt;stroke-linejoin:miter;stroke-opacity:1"
     id="text4210">
    <path
       d="m 174.08797,150.93294 1.45416,1.45416 -1.45416,1.45415 -9.45203,0 -1.45416,-1.45415 1.45416,-1.45416 9.45203,0 z m 2.18123,1.8177 0.72708,0.72708 0,10.1791 q -0.36354,1.45416 -1.81769,1.8177 l -1.09062,-2.90832 0,-7.63433 2.18123,-2.18123 z m -1.81769,12.72388 -10.90619,0 q -1.45415,-0.36354 -1.81769,-1.8177 l 2.90831,-1.09062 8.72495,0 1.09062,2.90832 z m -1.09062,-23.26653 -8.68859,0 -2.90832,-1.09062 q 0.36354,-1.45415 1.8177,-1.81769 l 10.86983,0 -1.09062,2.90831 z m 0.72708,7.63433 0,-7.63433 1.09062,-2.90831 q 1.45415,0.36354 1.81769,1.81769 l 0,10.17911 -0.72708,0.72708 -2.18123,-2.18124 z"
       style="font-style:normal;font-variant:normal;font-weight:normal;font-stretch:normal;font-family:Digital-7;-inkscape-font-specification:Digital-7"
       id="path4283" />
  </g>
  <rect
     y="186.08725"
     x="154.18045"
     height="45.53738"
     width="45.53738"
     id="rect4214"
     style="fill:#ffffff;fill-opacity:1;fill-rule:evenodd;stroke:#000000;stroke-width:1.69990849;stroke-linecap:butt;stroke-linejoin:miter;stroke-miterlimit:4;stroke-dasharray:none;stroke-opacity:1" />
  <g
     transform="scale(1.0441797,0.95768956)"
     style="font-style:normal;font-weight:normal;font-size:39.98934174px;line-height:125%;font-family:sans-serif;letter-spacing:0px;word-spacing:0px;fill:#000000;fill-opacity:1;stroke:none;stroke-width:1px;stroke-linecap:butt;stroke-linejoin:miter;stroke-opacity:1"
     id="text4216">
    <path
       d="m 174.19348,217.02599 1.45416,1.45415 -1.45416,1.45416 -9.45202,0 -1.45416,-1.45416 1.45416,-1.45415 9.45202,0 z m 2.18124,1.81769 0.72708,0.72708 0,10.17911 q -0.36354,1.45416 -1.8177,1.8177 l -1.09062,-2.90832 0,-7.63433 2.18124,-2.18124 z m -1.8177,12.72389 -10.90618,0 q -1.45416,-0.36354 -1.8177,-1.8177 l 2.90832,-1.09062 8.72494,0 1.09062,2.90832 z m -12.72388,-2.54478 0,-9.45203 0.72708,-0.72708 2.18124,2.18124 0,6.90725 -2.90832,1.09062 z m 11.63326,-20.72175 -8.68859,0 -2.90832,-1.09062 q 0.36354,-1.45416 1.8177,-1.8177 l 10.86983,0 -1.09062,2.90832 z m -8.72494,0.72708 0,6.90725 -2.18124,2.18124 -0.72708,-0.72708 0,-9.45203 2.90832,1.09062 z m 9.45202,6.90725 0,-7.63433 1.09062,-2.90832 q 1.45416,0.36354 1.8177,1.8177 l 0,10.17911 -0.72708,0.72708 -2.18124,-2.18124 z"
       style="font-style:normal;font-variant:normal;font-weight:normal;font-stretch:normal;font-family:Digital-7;-inkscape-font-specification:Digital-7"
       id="path4286" />
  </g>
  <rect
     y="123.52793"
     x="223.48553"
     height="45.53738"
     width="45.53738"
     id="rect4220"
     style="fill:#ffffff;fill-opacity:1;fill-rule:evenodd;stroke:#000000;stroke-width:1.69990849;stroke-linecap:butt;stroke-linejoin:miter;stroke-miterlimit:4;stroke-dasharray:none;stroke-opacity:1" />
  <g
     transform="scale(1.0441797,0.95768956)"
     style="font-style:normal;font-weight:normal;font-size:39.98934174px;line-height:125%;font-family:sans-serif;letter-spacing:0px;word-spacing:0px;fill:#000000;fill-opacity:1;stroke:none;stroke-width:1px;stroke-linecap:butt;stroke-linejoin:miter;stroke-opacity:1"
     id="text4222">
    <path
       d="m 240.46072,150.93294 1.45416,1.45416 -1.45416,1.45415 -9.45202,0 -1.45416,-1.45415 1.45416,-1.45416 9.45202,0 z m 2.18124,1.8177 0.72708,0.72708 0,10.1791 q -0.36354,1.45416 -1.8177,1.8177 l -1.09062,-2.90832 0,-7.63433 2.18124,-2.18123 z m -11.63326,-10.90619 0,7.99787 -2.18124,2.18124 -0.72708,-0.72708 0,-10.54265 2.90832,1.09062 z m 9.45202,7.99787 0,-7.63433 1.09062,-2.90831 q 1.45416,0.36354 1.8177,1.81769 l 0,10.17911 -0.72708,0.72708 -2.18124,-2.18124 z"
       style="font-style:normal;font-variant:normal;font-weight:normal;font-stretch:normal;font-family:Digital-7;-inkscape-font-specification:Digital-7"
       id="path4268" />
  </g>
  <rect
     style="fill:#ffffff;fill-opacity:1;fill-rule:evenodd;stroke:#000000;stroke-width:1.69990849;stroke-linecap:butt;stroke-linejoin:miter;stroke-miterlimit:4;stroke-dasharray:none;stroke-opacity:1"
     id="rect4226"
     width="45.53738"
     height="45.53738"
     x="223.48553"
     y="186.08725" />
  <g
     transform="scale(1.0441797,0.95768956)"
     style="font-style:normal;font-weight:normal;font-size:39.98934174px;line-height:125%;font-family:sans-serif;letter-spacing:0px;word-spacing:0px;fill:#000000;fill-opacity:1;stroke:none;stroke-width:1px;stroke-linecap:butt;stroke-linejoin:miter;stroke-opacity:1"
     id="text4228">
    <path
       d="m 240.56624,217.02599 1.45416,1.45415 -1.45416,1.45416 -9.45203,0 -1.45415,-1.45416 1.45415,-1.45415 9.45203,0 z m 2.18124,1.81769 0.72708,0.72708 0,10.17911 q -0.36354,1.45416 -1.8177,1.8177 l -1.09062,-2.90832 0,-7.63433 2.18124,-2.18124 z m -1.8177,12.72389 -10.90619,0 q -1.45415,-0.36354 -1.81769,-1.8177 l 2.90831,-1.09062 8.72495,0 1.09062,2.90832 z m -1.09062,-23.26653 -8.68859,0 -2.90832,-1.09062 q 0.36354,-1.45416 1.8177,-1.8177 l 10.86983,0 -1.09062,2.90832 z m -8.72495,0.72708 0,6.90725 -2.18123,2.18124 -0.72708,-0.72708 0,-9.45203 2.90831,1.09062 z m 9.45203,6.90725 0,-7.63433 1.09062,-2.90832 q 1.45416,0.36354 1.8177,1.8177 l 0,10.17911 -0.72708,0.72708 -2.18124,-2.18124 z"
       style="font-style:normal;font-variant:normal;font-weight:normal;font-stretch:normal;font-family:Digital-7;-inkscape-font-specification:Digital-7"
       id="path4265" />
  </g>
  <rect
     style="fill:#ffffff;fill-opacity:1;fill-rule:evenodd;stroke:#000000;stroke-width:1.69990849;stroke-linecap:butt;stroke-linejoin:miter;stroke-miterlimit:4;stroke-dasharray:none;stroke-opacity:1"
     id="rect4232"
     width="45.53738"
     height="45.53738"
     x="288.36688"
     y="123.52793" />
  <g
     transform="scale(1.0441797,0.95768956)"
     style="font-style:normal;font-weight:normal;font-size:39.98934174px;line-height:125%;font-family:sans-serif;letter-spacing:0px;word-spacing:0px;fill:#000000;fill-opacity:1;stroke:none;stroke-width:1px;stroke-linecap:butt;stroke-linejoin:miter;stroke-opacity:1"
     id="text4234">
    <path
       d="m 302.59694,150.93294 1.45416,1.45416 -1.45416,1.45415 -9.45203,0 -1.45415,-1.45415 1.45415,-1.45416 9.45203,0 z m 2.18124,1.8177 0.72708,0.72708 0,10.1791 q -0.36354,1.45416 -1.8177,1.8177 l -1.09062,-2.90832 0,-7.63433 2.18124,-2.18123 z m -1.8177,12.72388 -10.90618,0 q -1.45416,-0.36354 -1.8177,-1.8177 l 2.90831,-1.09062 8.72495,0 1.09062,2.90832 z m 0,-23.26653 -9.77921,0 -2.90832,-1.09062 q 0.36354,-1.45415 1.8177,-1.81769 l 11.96045,0 -1.09062,2.90831 z m -9.81557,0.72708 0,6.90725 -2.18123,2.18124 -0.72708,-0.72708 0,-9.45203 2.90831,1.09062 z"
       style="font-style:normal;font-variant:normal;font-weight:normal;font-stretch:normal;font-family:Digital-7;-inkscape-font-specification:Digital-7"
       id="path4262" />
  </g>
  <rect
     y="186.08725"
     x="288.36688"
     height="45.53738"
     width="45.53738"
     id="rect4238"
     style="fill:#ffffff;fill-opacity:1;fill-rule:evenodd;stroke:#000000;stroke-width:1.69990849;stroke-linecap:butt;stroke-linejoin:miter;stroke-miterlimit:4;stroke-dasharray:none;stroke-opacity:1" />
  <g
     transform="scale(1.0441797,0.95768956)"
     style="font-style:normal;font-weight:normal;font-size:39.98934174px;line-height:125%;font-family:sans-serif;letter-spacing:0px;word-spacing:0px;fill:#000000;fill-opacity:1;stroke:none;stroke-width:1px;stroke-linecap:butt;stroke-linejoin:miter;stroke-opacity:1"
     id="text4240">
    <path
       d="m 304.88368,218.84368 0.72708,0.72708 0,10.17911 q -0.36354,1.45416 -1.8177,1.8177 l -1.09062,-2.90832 0,-7.63433 2.18124,-2.18124 z m -1.8177,12.72389 -10.90619,0 q -1.45415,-0.36354 -1.81769,-1.8177 l 2.90831,-1.09062 8.72495,0 1.09062,2.90832 z m -12.72388,-2.54478 0,-9.45203 0.72708,-0.72708 2.18123,2.18124 0,6.90725 -2.90831,1.09062 z m 11.63326,-20.72175 -8.68859,0 -2.90832,-1.09062 q 0.36354,-1.45416 1.8177,-1.8177 l 10.86983,0 -1.09062,2.90832 z m -8.72495,0.72708 0,6.90725 -2.18123,2.18124 -0.72708,-0.72708 0,-9.45203 2.90831,1.09062 z m 9.45203,6.90725 0,-7.63433 1.09062,-2.90832 q 1.45416,0.36354 1.8177,1.8177 l 0,10.17911 -0.72708,0.72708 -2.18124,-2.18124 z"
       style="font-style:normal;font-variant:normal;font-weight:normal;font-stretch:normal;font-family:Digital-7;-inkscape-font-specification:Digital-7"
       id="path4259" />
  </g>
</svg>
